<?xml version="1.0" encoding="UTF-8" standalone="no"?>
<svg xmlns:rdf="http://www.w3.org/1999/02/22-rdf-syntax-ns#" xmlns="http://www.w3.org/2000/svg" enable-background="new 0 234.5 612 200" xml:space="preserve" height="76.931" viewBox="0 234.5 250 76.930574" width="250" version="1.1" y="0px" x="0px" xmlns:cc="http://creativecommons.org/ns#" xmlns:dc="http://purl.org/dc/elements/1.1/"><g transform="matrix(.51547 0 0 .51547 .60442 114.26)"><path d="m442.63 53.691v51.871h14.475v-33.797h9.6602c1.213-1.615 1.1408-3.1945 2.4238-4.8125 1.58-2.02 3.7838-1.3154 5.2188-3.2324 1.011-1.347 0.54223-2.7049 1.6152-4.0039 1.166-1.403 2.5709-0.51188 4.0059-2.4219 1.1-1.579 0.80524-2.7965 1.6152-3.6035h-39.014zm-52.943 0.10156-0.0469 36.623c-0.008 4.269 2.7863 8.4376 4.4024 10.018 2.017 2.018 6.1573 5.2461 10.861 5.2461h22.049l13.283-15.264 0.0801-36.623h-18.098c-0.807 0.807-0.58455 2.0959-1.6856 3.6719-1.433 1.91-2.837 1.0209-4 2.4219-1.073 1.296-0.60338 2.656-1.6094 4.002-1.436 1.913-3.5979 1.2085-5.2109 3.2285-1.288 1.613-1.2158 3.1896-2.4258 4.8066h18.898v16.877h-15.668c-1.298 0-2.3445 0.14236-3.2305-0.80664-0.68-0.728-0.80669-1.4269-0.80469-2.4219l0.0586-31.779h-16.854z" transform="translate(0,234.5)" fill="#ff8200"/><path d="m64.77 47.748h311.92-311.92zm-46.902 67.59h440.16-440.16z" transform="translate(0,234.5)" stroke="#000" stroke-width="1.4121" fill="none"/><path d="m67.475 0.92773c-0.17658 0.00010937-0.32042 0.007813-0.38867 0.007813-1.689 0-3.4337 0.21484-5.1777 0.21484-1.471 0-2.8359-0.21484-4.2539-0.21484-0.271 0-1.1992 0.16297-1.1992 0.54297 0 1.744 4.416 0.43734 4.416 3.6523v18.375c0 8.397 2.7265 16.41 17.064 16.41 15.867 0 15.213-13.466 15.213-16.137v-16.9c0-5.02 3.2168-3.8187 3.2168-5.3477 0-0.326-0.43403-0.5957-0.70703-0.5957-0.981 0-1.964 0.21484-3 0.21484-2.126 0-4.2509-0.21484-6.3789-0.21484-0.163 0-0.54492 0.27097-0.54492 0.54297 0 2.074 5.0703-0.2173 5.0703 5.3457v17.664c0 6.435-2.3447 13.195-12.596 13.195-7.359 0-13.029-3.9821-13.029-12.705v-19.576c0-3.925 3.6543-2.3958 3.6543-3.9238 0-0.48975-0.82964-0.55111-1.3594-0.55078zm185.16 4.5274c-5.462 0-10.543 2.8987-10.543 8.9297 0 12.395 19.279 7.2656 19.279 16.432 0 4.987-4.4138 7.5039-8.9238 7.5039-6.556 0-9.4036-4.9381-9.9766-7.1211-0.237-1-0.23744-1.5664-0.89844-1.5664-0.479 0-0.71334 0.52066-0.52734 1.4727l1.1914 6.123c0.189 0.856 4.5134 2.6113 8.0234 2.6113 10.783 0 13.588-5.9807 13.588-9.9707 0-13.109-19.281-7.8835-19.281-16.812 0-4.37 3.9883-6.1738 7.7363-6.1738 4.185 0 7.6483 2.0888 9.0703 6.1738 0.144 0.424 0.4771 1.4238 0.9961 1.4238 0.479 0 0.57343-0.33289 0.52343-0.71289l-0.71289-6.459c-0.045-0.522-0.28336-0.66406-0.56836-0.66406-0.475 0-0.57004 0.52148-0.99804 0.52148-0.663 0-2.2315-1.7109-7.9785-1.7109zm-29.396 0.40625c-0.35949 0.00808-0.60667 0.023437-0.70117 0.023437-2.469 0-5.1756 0.18945-7.9316 0.18945-2.423 0-2.181-0.18945-3.041-0.18945-0.567 0-0.94922 0.28527-0.94922 0.57227 0 1.614 4.0859-0.33339 4.0859 4.2246v24.174c0 3.608-3.4688 2.9419-3.4688 4.1309 0 0.285 0.18956 0.52148 0.47656 0.52148 1.804 0 3.6081-0.1875 5.4121-0.1875 3.944 0 5.0348 0.1875 5.4648 0.1875 0.377 0 0.80469 0.09609 0.80469-0.37891 0-1.616-4.9394-0.14256-4.9394-4.2266v-10.02c0-0.476-0.28167-1.3301 1.2363-1.3301 5.318 0 4.6084-0.14533 6.3164 2.5137l5.2715 8.3145c1.804 2.707 3.657 5.127 7.127 5.127 0.425 0 3.084-0.000312 3.084-0.57031 0-1.141-2.3281 0.61858-5.7461-4.6074l-7.9297-12.014c3.321-1.331 5.9844-4.5108 5.9844-8.2168 0-8.0194-8.0402-8.2948-10.557-8.2383zm109.52 0.021484c-0.521 0-0.99805 0.096844-0.99805 0.71484 0 1.138 3.5625 0.14075 3.5625 2.4688 0 1.282-0.66405 2.0893-0.99805 2.6113l-4.8887 7.9316c-0.381 0.618-0.66934 0.94922-0.90234 0.94922-0.287 0-0.57118-0.28352-0.95118-0.85352l-5.7441-9.166c-0.287-0.43-0.85742-1.1882-0.85742-1.9492 0-1.376 2.2305-1.4245 2.2305-2.2305 0-0.428-0.56334-0.47461-0.90234-0.47461-0.471 0-1.7553 0.18945-3.3203 0.18945-3.233 0-4.1311-0.18945-5.4141-0.18945-0.331 0-0.61914 0.37989-0.61914 0.71289 0 0.807 2.3315 0.2383 3.5625 2.2793l7.9277 12.68c0.381 0.573 1.0938 1.5219 1.0938 2.4219v11.494c0 3.374-3.6582 2.1358-3.6582 3.4648 0 0.523 0.28689 0.57031 0.71289 0.57031s2.1374-0.1875 4.2754-0.1875c1.756 0 4.5116 0.1875 5.2246 0.1875 0.662 0 1.0898-0.04656 1.0898-0.47656 0-1.471-3.8965-0.13948-3.8965-4.2715v-11.637c0-0.712 0.38263-0.94767 1.1406-2.1387l6.6484-10.352c0.76201-1.186 1.3781-2.5163 2.6621-3.2773 0.331-0.191 1.1406-0.37839 1.1406-0.90039 0-0.239-0.23944-0.57227-0.52344-0.57227-1.374 0-2.7539 0.18945-4.1289 0.18945-1.141 0-2.3308-0.18945-3.4688-0.18945zm-234.45 0.00195c-0.237 0-0.70898 0.18961-0.70898 0.47461 0 1.758 5.7461-0.99819 5.7461 8.8828v17.525h-0.002c0 6.646-4.1777 4.5568-4.1777 6.2188 0 0.237 0.04523 0.52148 0.61523 0.52148 0.331 0 2.8029-0.1875 4.4629-0.1875 2.328 0 3.6589 0.1875 4.7969 0.1875 0.47599 0 0.52343-0.37823 0.52343-0.61523 0-1.282-4.1797 0.37947-4.1797-3.8945v-19.426c0-0.947 0.14408-1.0898 0.33008-1.0898 0.336 0 0.906 0.80439 1 0.90039l20.42 22.988c0.99701 1.091 1.4737 1.3281 1.8047 1.3281 0.381 0 0.42774-0.66597 0.42774-2.043v-27.496c0-3.466 2.8008-2.6117 2.8008-3.8457 0-0.287-0.18961-0.42969-0.47461-0.42969-1.14 0-3.184 0.18945-4.793 0.18945-1.522 0-2.8992-0.18945-4.3262-0.18945-0.282 0-0.51953 0.14161-0.51953 0.47461 0 1.568 5.2715-0.23462 5.2715 5.9844v19.854c0 0.379-0.0476 0.51953-0.14258 0.51953-0.096 0-0.28336-0.18753-0.56836-0.51953l-22.65-25.22c-0.285-0.333-0.71533-1.0938-1.2363-1.0938-0.712 0-1.4716 0.18945-2.1836 0.18945-0.761 0-1.4714-0.18945-2.2344-0.18945zm38.586 0c-0.379 0-0.47266 0.094484-0.47266 0.52148 0 1.043 3.7947 0.0945 3.8457 3.5625v24.316h0.002c0 4.702-3.7051 3.1347-3.7051 4.5137 0 0.474 0.1441 0.70898 0.9961 0.70898 0.667 0 1.6625-0.1875 4.5605-0.1875 2.041 0 4.0828 0.1875 5.1758 0.1875 0.807 0 0.94727-0.14056 0.94727-0.47656 0-1.423-4.2246-0.33059-4.2246-3.5586v-25.502c0-3.562 3.4199-2.4713 3.4199-3.6113 0-0.379-0.14429-0.47461-0.90429-0.47461-1.473 0-2.9441 0.18945-4.4141 0.18945-1.758 0-3.4706-0.18945-5.2266-0.18945zm37.871 0c-0.473 0-0.71289 0.14119-0.71289 0.61719 0 1.092 3.0391 0.19 3.0391 2.375 0.19 0.997-0.38211 2.5185-0.66211 3.2285l-8.2676 20.377c-0.235 0.568-0.38156 1.3262-0.85156 1.3262-0.524 0-0.85835-1.0924-1.9024-3.6094l-8.3086-19.564c-0.19-0.429-0.42969-1.1856-0.42969-1.8516 0-1.708 1.9952-1.7579 1.9492-2.4219 0-0.285-0.38102-0.47461-0.66602-0.47461-0.667 0-2.4709 0.18945-3.7539 0.18945-1.424 0-2.8971-0.18945-4.3691-0.18945-0.426 0-0.66016 0.23902-0.66016 0.66602 0 1.043 2.4682 0.14219 3.6562 2.9922l11.729 27.734c0.425 0.997 0.9979 2.9902 1.7539 2.9902 0.715 0 1.0474-1.5679 1.5684-2.7559l11.83-27.971c1.331-3.183 2.6602-1.995 2.6602-3.041 0-0.427-0.28464-0.61719-0.80664-0.61719-0.668 0-1.3782 0.18945-3.6582 0.18945-1.044 0-2.0888-0.18945-3.1348-0.18945zm10.416 0c-1.376 0-1.6621 0.19027-1.6621 0.57227 0 0.568 1.0448 0.66577 1.4238 0.75977 2.567 0.379 2.5664 2.6579 2.5664 4.7949v21.656c0 2.229-0.0961 3.5618-1.3301 4.1328-1.519 0.761-1.9978 0.66347-2.0918 1.2305 0 0.381 0.28394 0.47656 0.71094 0.47656 1.901 0 3.8939-0.1395 5.7949-0.1875 3.611-0.097 7.2191 0.1875 10.83 0.1875 2.091 0 3.1344 0.09672 4.6504-1.6133 1.142-1.236 2.375-2.8965 2.375-4.6055 0-0.096-0.0479-0.57226-0.38086-0.57226-0.616 0-2.2342 4.8926-13.201 4.8926-3.988 0-3.6094-1.1394-3.6094-3.9414v-8.7383c0-0.714-0.14262-1.5215 0.85938-1.5215h7.0234c3.992 0 2.3747 4.1816 3.8457 4.1816 0.337 0 0.52929-0.18914 0.52929-0.61914 0-1.282-0.0976-2.5179-0.0976-3.7539 0-1.517 0.0976-3.1309 0.0976-4.7949 0-0.379-0.14729-0.90234-0.52929-0.90234-1.138 0 0.14603 3.7988-4.793 3.7988h-5.1289c-1.901 0-1.8066 0.0017-1.8066-1.6113l0.002-8.8359c0-3.181-0.0952-2.9902 4.4648-2.9902 1.898 0 6.8383-0.28683 8.0723 1.3262 0.763 1.094-0.001 3.375 1.1387 3.375 0.285 0 0.95312-0.38034 0.95312-5.6523 0-0.57-0.0946-1.0449-0.47656-1.0449-1.471 0-5.8401 0.18945-6.7891 0.18945-1.997 0-4.4684-0.18945-13.441-0.18945zm83.73 0c-0.38 0-0.47461 0.094484-0.47461 0.52148 0 1.043 3.7987 0.0945 3.8457 3.5625v24.316c0 4.702-3.7051 3.1347-3.7051 4.5137 0 0.474 0.146 0.70898 1 0.70898 0.664 0 1.6586-0.1875 4.5586-0.1875 2.043 0 4.0867 0.1875 5.1797 0.1875 0.806 0 0.94531-0.14056 0.94531-0.47656 0-1.423-4.2266-0.33059-4.2266-3.5586v-25.502c0-3.562 3.418-2.4713 3.418-3.6113 0-0.379-0.13934-0.47461-0.90234-0.47461-1.471 0-2.9401 0.18945-4.4141 0.18945-1.758 0-3.4646-0.18945-5.2246-0.18945zm14.793 0c-0.854 0-0.80852 1.2816-0.85352 1.8516l-0.52148 4.6074c0 0.239 0.19156 0.57227 0.47656 0.57227 0.617 0 0.66364-0.6197 0.80664-1.0957 0.855-2.613 0.94953-3.3223 3.8945-3.3223h7.7422c0.661 0.049 0.47656 1.8526 0.47656 2.1836v24.697h-0.002c0 2.847-3.752 2.3737-3.752 3.5137 0 0.476 0.13845 0.61523 0.56445 0.61523 0.287 0 1.1918-0.1875 6.5098-0.1875 1.377 0 2.7087 0.1875 3.8477 0.1875 0.476 0 0.42578-0.42831 0.42578-0.57031 0-1.474-3.8457 0.09542-3.8457-3.8926v-24.221c0-2.517-0.23456-2.3281 1.8984-2.3281h6.7949c4.844 0 2.2762 3.6094 4.0352 3.6094 0.618 0 0.56749-0.56997 0.52149-1.043l-0.23828-3.7988c-0.048-1.094-0.28296-1.3789-1.377-1.3789-0.949 0-5.3211 0.18945-13.914 0.18945-6.127 0-9.7822-0.18945-13.49-0.18945zm91.809 1.1055c-3.475 0-6.4991 3.2088-7.6191 6.7578-0.819 2.573-0.55402 3.3164-1.041 3.3164h-2.7988c-0.747 0-0.74805 0.29866-0.74805 0.97266 0 0.561 0.001 0.93359 0.74805 0.93359h2.4609c0.296 0 0.52138 0.07527 0.48438 0.44727l-1.791 15.191c-0.375 2.912-0.89592 3.3223-1.4199 3.3223-1.38 0-1.455-2.6523-2.498-2.6523-0.825 0-1.1211 2.1688-1.1211 2.8398 0 1.046 0.63328 1.7559 2.2383 1.7559 1.791 0 6.3101-2.0179 7.1641-8.9219l1.43-11.239c0.035-0.37 0.0351-0.74414 0.37109-0.74414h2.8438v0.002h0.002c0.745 0 0.74414-0.37259 0.74414-0.93359 0-0.674 0.00086-0.97266-0.74414-0.97266h-2.5039c-0.298 0-0.51953-0.29475-0.51953-0.59375 0-1.043 1.1495-7.8008 3.3535-7.8008 1.791 0 2.4989 2.7266 3.2109 2.7266 0.784 0 0.89844-2.1306 0.89844-2.7656 0-0.634 0.22028-1.6406-3.1367-1.6406zm-154.36 0.46094c4.654 0 9.0684 1.9452 9.0684 7.7402 0 5.89-4.5546 6.7461-6.5976 6.7461-2.233 0-5.1816 0.23898-5.1816-0.66602v-12.064c0-1.85 0.99894-1.7559 2.7109-1.7559zm132.22 6.1074c-6.555 0-10.469 7.0083-10.469 12.777 0 4.691 2.6416 8.252 7.5566 8.252 6.693 0 10.654-6.446 10.654-12.502 0-4.827-2.6352-8.5273-7.7422-8.5273zm-322 1.296c-0.319 0-0.52539-0.04681-0.52539 0.36719 0 0.662 2.5156-0.15953 2.5156 2.3555v3.2246c0 0.502-0.13678 1.0273-0.80078 1.0273h-6.791c-0.48 0-0.57227-0.29611-0.57227-0.91211v-3.6367c0-2.036 1.7617-1.372 1.7617-2.084 0-0.225-0.20834-0.33984-0.52734-0.33984-0.662 0-1.5753 0.0918-2.9473 0.0918-1.191 0-1.8745-0.0918-2.5605-0.0918-0.437 0-1.125 0.02023-1.125 0.36523 0 0.869 2.5859-0.13658 2.5859 2.3574v10.199c0 2.835-1.9414 2.0108-1.9414 2.9258 0 0.299 0.227 0.34375 0.5 0.34375 1.144 0 2.1034-0.0918 3.0664-0.0918 1.646 0 2.4019 0.0918 3.3379 0.0918 0.733 0 0.68359-0.18331 0.68359-0.32031 0-0.824-2.834 0.0011-2.834-2.8359v-3.5898c0-1.006 0.06705-1.2344 1.123-1.2344h6.1035c1.006 0 0.9375 0.24994 0.9375 1.2109v4.1172c0 2.219-1.668 1.5984-1.668 2.3984 0 0.161 0.13808 0.25391 0.45508 0.25391 1.168 0 2.0598-0.0918 2.8848-0.0918 0.936 0 2.285 0.0918 3.041 0.0918 0.297 0 0.48047 0.02061 0.48047-0.27539 0-0.892-2.3809-0.04517-2.3809-2.9512v-10.566c0-2.239 1.6484-1.254 1.6484-2.125 0-0.205-0.09147-0.27539-0.48047-0.27539-0.983 0-1.8285 0.0918-3.0215 0.0918-1.416 0-2.0112-0.0918-2.9492-0.0918zm9.4805 0c-0.32 0-0.50391 0.18362-0.50391 0.39062 0 0.914 2.584 0.18228 2.584 2.2383v10.703c0 2.788-1.7383 1.5555-1.7383 2.6055 0 0.141 0.1385 0.25195 0.4375 0.25195 1.257 0 2.2177-0.0918 2.9277-0.0918 1.14 0 2.5122 0.0918 5.9902 0.0918 1.875 0 3.2227-1.8732 3.2227-3.6582 0-0.435-0.15995-0.50195-0.25195-0.50195-0.869 0-0.54675 2.9961-6.2188 2.9961-1.646 0-1.5527-0.82314-1.5527-2.2441v-2.9258c0-1.326-0.09206-1.6016 0.96094-1.6016h1.6914c2.376 0 1.7358 2.4258 2.4668 2.4258 0.549 0 0.41167-0.82405 0.38867-1.123l-0.16-4.067c-0.021-0.619-0.27259-0.57227-0.43359-0.57227-0.46 0-0.52419 2.1035-2.4922 2.1035h-1.4414c-0.981 0-0.98047-0.15958-0.98047-1.1426v-3.2012h-0.002c0-1.579 0.09147-1.5996 2.8555-1.5996 4.413 0 2.6311 2.6738 3.7051 2.6738 0.526 0 0.41167-0.75478 0.38867-1.0508l-0.08984-2.2656c0-0.205-0.15998-0.43359-0.45898-0.43359-2.011 0-3.5889 0.0918-5.2129 0.0918-3.5 0-5.143-0.0918-6.082-0.0918zm-36.678 0.002c-0.341 0-0.34123 0.31888-0.36523 0.54688l-0.36719 3.0195c-0.045 0.296-0.18117 0.79883 0.29883 0.79883 1.028 0 0.34083-2.9941 2.9238-2.9941h1.9238c0.938 0 1.166 0.11194 1.166 1.2109v10.609c0 2.724-2.584 1.6236-2.584 2.5156 0 0.503 0.39083 0.48242 0.79883 0.48242 0.915 0 1.6721-0.0918 3.2031-0.0918 1.533 0 2.2862 0.0918 3.2012 0.0918 0.662 0 1.1191 0.06958 1.1191-0.48242 0-0.639-2.9258 0.02389-2.9258-2.7871v-10.338c0-1.099 0.22902-1.2109 1.166-1.2109h1.9414c2.632-0.092 1.9005 2.4473 2.8125 2.4473 0.595 0 0.34583-0.89002 0.29883-1.166l-0.25195-2.1055c-0.021-0.228-0.02128-0.54688-0.36328-0.54688-2.128 0-3.66 0.0918-6.998 0.0918-3.339 0-4.87-0.0918-6.998-0.0918zm349.16 0.086c3.587 0 4.3672 2.7522 4.3672 6.0312 0 4.526-1.4943 12.229-7.2363 12.229-3.477 0-4.1387-3.5512-4.1387-6.4492 0-4.432 1.4988-11.811 7.0078-11.811zm-350.21 26.836c-1.614 0-1.5223 2.424-1.6133 3.5l-0.98633 8.6992c0 0.446 0.35848 1.0762 0.89648 1.0762 1.167 0 1.2574-1.1645 1.5254-2.0605 1.614-4.937 1.7935-6.2832 7.3555-6.2832h14.621c1.252 0.092 0.89648 3.499 0.89648 4.127v46.643h0.002c0 5.382-7.0859 4.4866-7.0859 6.6406 0 0.896 0.26722 1.1641 1.0742 1.1641 0.54 0 2.242-0.36133 12.291-0.36133 2.599 0 5.1116 0.36133 7.2656 0.36133 0.896 0 0.80664-0.80622 0.80664-1.0742 0-2.781-7.2656 0.17858-7.2656-7.3574v-45.744c0-4.755-0.45011-4.3965 3.5879-4.3965h12.824c9.152 0 4.307 6.8164 7.625 6.8164 1.166 0 1.0763-1.0747 0.98633-1.9707l-0.44726-7.1777c-0.092-2.062-0.54052-2.6016-2.6035-2.6016-1.793 0-10.043 0.36133-26.281 0.36133-11.569 0-18.476-0.36133-25.475-0.36133zm248.49 14.235c-7.888 0-15.229 4.1865-15.229 12.896 0 17.906 27.854 10.496 27.854 23.736 0 7.203-6.3784 10.838-12.898 10.838-9.467 0-13.582-7.1341-14.402-10.289-0.344-1.441-0.34369-2.2637-1.3047-2.2637-0.687 0-1.0279 0.75495-0.75391 2.127l1.7129 8.8496c0.273 1.232 6.5168 3.7715 11.592 3.7715 15.571 0 19.619-8.6443 19.619-14.404 0-18.934-27.854-11.39-27.854-24.285 0-6.312 5.7626-8.916 11.182-8.916 6.04 0 11.049 3.014 13.105 8.916 0.206 0.618 0.68646 2.0605 1.4395 2.0605 0.688 0 0.82381-0.4793 0.75781-1.0293l-1.0312-9.332c-0.068-0.753-0.40931-0.96094-0.82031-0.96094-0.686 0-0.82741 0.75586-1.4414 0.75586-0.961 0-3.2253-2.4707-11.527-2.4707zm36.225 0c-7.889 0-15.23 4.1865-15.23 12.896 0 17.906 27.85 10.496 27.85 23.736 0 7.203-6.3785 10.838-12.895 10.838-9.467 0-13.584-7.1341-14.406-10.289-0.34-1.441-0.33974-2.2637-1.3027-2.2637-0.687 0-1.0289 0.75495-0.7539 2.127l1.7148 8.8496c0.271 1.232 6.5138 3.7715 11.59 3.7715 15.571 0 19.619-8.6443 19.619-14.404 0-18.934-27.85-11.39-27.85-24.285 0-6.312 5.7627-8.916 11.18-8.916 6.034 0 11.047 3.014 13.102 8.916 0.21 0.618 0.68746 2.0605 1.4395 2.0605 0.688 0 0.82486-0.4793 0.75586-1.0293l-1.0274-9.332c-0.068-0.753-0.41222-0.96094-0.82422-0.96094-0.687 0-0.82045 0.75586-1.4394 0.75586-0.958 0-3.2255-2.4707-11.521-2.4707zm-200.03 0.617c-0.342 0-1.0312 0.27455-1.0312 0.68555 0 2.54 8.3008-1.4409 8.3008 12.828l0.002 25.314c0 9.603-6.0371 6.5844-6.0371 8.9844 0 0.344 0.06758 0.75586 0.89258 0.75586 0.478 0 4.0473-0.27539 6.4473-0.27539 3.363 0 5.2817 0.27539 6.9297 0.27539 0.688 0 0.7539-0.54858 0.7539-0.89258 0-1.854-6.0352 0.54995-6.0352-5.623v-28.059c0-1.372 0.20447-1.5762 0.48047-1.5762 0.48 0 1.2985 1.1627 1.4395 1.3027l29.498 33.199c1.44 1.578 2.1255 1.9238 2.6055 1.9238 0.552 0 0.61719-0.96417 0.61719-2.9512v-39.719c0-5.008 4.0469-3.7736 4.0469-5.5566 0-0.411-0.2726-0.61719-0.6836-0.61719-1.648 0-4.5967 0.27344-6.9297 0.27344-2.194 0-4.1862-0.27344-6.2442-0.27344-0.409 0-0.75195 0.20459-0.75195 0.68359 0 2.264 7.6133-0.34352 7.6133 8.6465v28.672c0 0.549-0.0661 0.75586-0.20508 0.75586-0.139 0-0.41321-0.27486-0.82421-0.75586l-32.715-36.42c-0.412-0.48-1.0272-1.5781-1.7832-1.5781-1.029 0-2.1292 0.27344-3.1562 0.27344-1.096 0-2.1247-0.27344-3.2227-0.27344zm52.82 0c-0.34 0-1.0293 0.27455-1.0293 0.68555 0 2.54 8.3027-1.4409 8.3027 12.828v25.314c0 9.603-6.0391 6.5844-6.0391 8.9844 0 0.344 0.0696 0.75586 0.89258 0.75586 0.48 0 4.0442-0.27539 6.4492-0.27539 3.36 0 5.2817 0.27539 6.9297 0.27539 0.686 0 0.75391-0.54858 0.75391-0.89258 0-1.854-6.0391 0.54995-6.0391-5.623v-28.059c0-1.372 0.20746-1.5762 0.48046-1.5762 0.48 0 1.3035 1.1627 1.4395 1.3027l29.498 33.199c1.441 1.578 2.1245 1.9238 2.6055 1.9238 0.549 0 0.61914-0.96417 0.61914-2.9512v-39.719c0-5.008 4.0508-3.7736 4.0508-5.5566 0-0.411-0.27355-0.61719-0.68555-0.61719-1.646 0-4.6016 0.27344-6.9316 0.27344-2.197 0-4.1852-0.27344-6.2422-0.27344-0.412 0-0.75586 0.20459-0.75586 0.68359 0 2.264 7.6152-0.34352 7.6152 8.6465v28.672c0 0.549-0.0701 0.75586-0.20508 0.75586-0.138 0-0.41218-0.27486-0.82618-0.75586l-32.71-36.42c-0.41101-0.48-1.0322-1.5781-1.7832-1.5781-1.029 0-2.1282 0.27344-3.1582 0.27344-1.097 0-2.1227-0.27344-3.2227-0.27344zm-88.996 0.002c-1.989 0-2.4023 0.27331-2.4023 0.82031 0 0.825 1.5096 0.96266 2.0566 1.0977 3.705 0.55 3.7051 3.8427 3.7051 6.9297v31.281c0 3.225-0.13692 5.1458-1.9199 5.9668-2.197 1.099-2.8816 0.9642-3.0176 1.7832 0 0.55 0.40934 0.6875 1.0273 0.6875 2.744 0 5.6261-0.20639 8.3711-0.27539 5.212-0.136 10.425 0.27539 15.639 0.27539 3.018 0 4.5277 0.13897 6.7227-2.332 1.648-1.783 3.4316-4.1834 3.4316-6.6504 0-0.141-0.06883-0.82617-0.54883-0.82617-0.892 0-3.2243 7.0645-19.07 7.0645-5.762 0-5.2168-1.6454-5.2168-5.6914v-12.623c0-1.029-0.20667-2.1934 1.2363-2.1934h10.154c5.759 0 3.4287 6.0371 5.5547 6.0371 0.481 0 0.75391-0.27558 0.75391-0.89258 0-1.853-0.13476-3.6379-0.13476-5.4219 0-2.195 0.13476-4.5268 0.13476-6.9258 0-0.549-0.20491-1.3066-0.75391-1.3066-1.647 0 0.20622 5.4883-6.9258 5.4883h-7.4141c-2.741 0-2.6055 0.000969-2.6055-2.332v-12.76h0.002c0-4.594-0.13578-4.3223 6.4492-4.3223 2.744 0 9.8791-0.41112 11.662 1.9219 1.099 1.579 0.000437 4.8711 1.6484 4.8711 0.411 0 1.3711-0.54906 1.3711-8.1641 0-0.823-0.1355-1.5078-0.6875-1.5078-2.126 0-8.4366 0.27344-9.8086 0.27344-2.88 0-6.4491-0.27344-19.414-0.27344zm145.29 0c-1.99 0-2.4024 0.27331-2.4024 0.82031 0 0.825 1.5066 0.96266 2.0586 1.0977 3.702 0.55 3.7031 3.8427 3.7031 6.9297v31.281c0 3.225-0.13587 5.1458-1.9219 5.9668-2.192 1.099-2.8796 0.9642-3.0176 1.7832 0 0.55 0.4143 0.6875 1.0293 0.6875 2.745 0 5.6232-0.20639 8.3672-0.27539 5.215-0.136 10.429 0.27539 15.641 0.27539 3.02 0 4.5276 0.13897 6.7246-2.332 1.648-1.783 3.4297-4.1834 3.4297-6.6504 0-0.141-0.0659-0.82617-0.54688-0.82617-0.892 0-3.2272 7.0645-19.074 7.0645-5.76 0-5.2129-1.6454-5.2129-5.6914v-12.623c0-1.029-0.20467-2.1934 1.2363-2.1934h10.15c5.762 0 3.4306 6.0371 5.5566 6.0371 0.48 0 0.75586-0.27558 0.75586-0.89258 0-1.853-0.13867-3.6379-0.13867-5.4219 0-2.195 0.13867-4.5268 0.13867-6.9258 0-0.549-0.20786-1.3066-0.75586-1.3066-1.646 0 0.20531 5.4883-6.9297 5.4883h-7.4043c-2.744 0-2.6094 0.000969-2.6094-2.332v-12.76c0-4.594-0.13578-4.3223 6.4492-4.3223 2.744 0 9.8781-0.41112 11.662 1.9219 1.097 1.579 0.00048 4.8711 1.6465 4.8711 0.411 0 1.377-0.54906 1.377-8.1641 0-0.823-0.14136-1.5078-0.69336-1.5078-2.126 0-8.4327 0.27344-9.8047 0.27344-2.882 0-6.4491-0.27344-19.414-0.27344zm112.82 0c-1.987 0-2.3984 0.27331-2.3984 0.82031 0 0.825 1.5086 0.96266 2.0586 1.0977 3.701 0.55 3.7012 3.8427 3.7012 6.9297v31.281c0 3.225-0.13597 5.1458-1.918 5.9668-2.192 1.099-2.8825 0.9642-3.0195 1.7832 0 0.55 0.41229 0.6875 1.0293 0.6875 2.744 0 5.6232-0.20639 8.3672-0.27539 5.213-0.136 10.426 0.27539 15.639 0.27539 3.021 0 4.5315 0.13897 6.7285-2.332 1.646-1.783 3.4297-4.1834 3.4297-6.6504 0-0.141-0.0678-0.82617-0.54882-0.82617-0.894 0-3.2243 7.0645-19.072 7.0645-5.762 0-5.2129-1.6454-5.2129-5.6914v-12.623c0-1.029-0.20558-2.1934 1.2324-2.1934h10.152c5.762 0 3.4286 6.0371 5.5566 6.0371 0.479 0 0.75781-0.27558 0.75781-0.89258 0-1.853-0.13672-3.6379-0.13672-5.4219 0-2.195 0.13672-4.5268 0.13672-6.9258 0-0.549-0.20981-1.3066-0.75781-1.3066-1.646 0 0.20431 5.4883-6.9297 5.4883h-7.4082c-2.74 0-2.6055 0.000969-2.6055-2.332v-12.76h0.002c0-4.594-0.13673-4.3223 6.4473-4.3223 2.741 0 9.8782-0.41112 11.658 1.9219 1.104 1.579 0.00039 4.8711 1.6504 4.8711 0.411 0 1.373-0.54906 1.373-8.1641 0-0.823-0.1355-1.5078-0.6875-1.5078-2.125 0-8.4405 0.27344-9.8125 0.27344-2.88 0-6.4471-0.27344-19.412-0.27344zm37.227 0c-1.991 0-2.4023 0.27331-2.4023 0.82031 0 0.825 1.5116 0.96266 2.0586 1.0977 3.705 0.55 3.7051 3.8427 3.7051 6.9297v31.281c0 3.225-0.13788 5.1458-1.9219 5.9668-2.194 1.099-2.8786 0.9642-3.0176 1.7832 0 0.55 0.4104 0.6875 1.0254 0.6875 2.745 0 5.6261-0.20639 8.3711-0.27539 5.212-0.136 10.425 0.27539 15.643 0.27539 3.019 0 4.5266 0.13897 6.7226-2.332 1.646-1.783 3.4336-4.1834 3.4336-6.6504 0-0.141-0.0727-0.82617-0.55274-0.82617-0.891 0-3.2223 7.0645-19.072 7.0645-5.76 0-5.2148-1.6454-5.2148-5.6914v-12.623c0-1.029-0.20467-2.1934 1.2363-2.1934h10.15c5.766 0 3.4316 6.0371 5.5606 6.0371 0.479 0 0.75586-0.27558 0.75586-0.89258 0-1.853-0.14063-3.6379-0.14063-5.4219 0-2.195 0.14063-4.5268 0.14063-6.9258 0-0.549-0.20586-1.3066-0.75586-1.3066-1.647 0 0.20445 5.4883-6.9356 5.4883h-7.4023c-2.744 0-2.6094 0.000969-2.6094-2.332l0.002-12.76c0-4.594-0.13578-4.3223 6.4492-4.3223 2.744 0 9.8831-0.41112 11.664 1.9219 1.099 1.579 0.00048 4.8711 1.6465 4.8711 0.411 0 1.3711-0.54906 1.3711-8.1641 0-0.823-0.1415-1.5078-0.6875-1.5078-2.127 0-8.4376 0.27344-9.8106 0.27344-2.883 0-6.4471-0.27344-19.412-0.27344zm-266.29 66.437c-0.414 0-0.50876 0.50971-2.3848 4.5117l-7.5938 16.203c-0.825 1.811-2.3184 1.2715-2.3184 1.9375 0 0.191 0.09611 0.34961 0.28711 0.34961 0.825 0 1.682-0.12305 2.541-0.12305 0.889 0 1.779 0.12305 2.668 0.12305 0.411 0 0.85742 0.0994 0.85742-0.47461 0-0.826-2.2559 0.12534-2.2559-2.0977 0-0.414 0.12866-0.88928 0.22266-1.1133l2.0332-4.4473c0.317-0.667 0.89014-0.66797 1.4941-0.66797h6.9902c0.889 0 1.0795 0.47994 1.3965 1.2109l1.0195 2.6016c0.317 0.859 0.98242 2.3216 0.98242 3.0176 0 1.209-1.9082 0.89229-1.9082 1.6543 0 0.316 0.50822 0.31446 0.69922 0.31446 0.859 0 1.7162-0.12305 2.5762-0.12305 1.301 0 2.6052 0.12305 3.9062 0.12305 0.225 0 0.44336-0.00016 0.44336-0.28516 0-0.795-1.8429-0.0926-2.7969-1.5566-0.729-1.11-1.1099-2.444-1.5879-3.623l-6.604-16.35c-0.094-0.252-0.31702-1.1738-0.66602-1.1738zm96.904 0.22265c-3.654 0-7.0527 1.9386-7.0527 5.9746 0 8.291 12.9 4.8592 12.9 10.992 0 3.336-2.9566 5.0195-5.9746 5.0195-4.385 0-6.2909-3.3046-6.6719-4.7676-0.161-0.666-0.16051-1.0449-0.60351-1.0449-0.318 0-0.47561 0.34642-0.34961 0.98242l0.79297 4.0977c0.129 0.572 3.0211 1.748 5.3711 1.748 7.212 0 9.0879-4.0019 9.0879-6.6719 0-8.768-12.898-5.274-12.898-11.248 0-2.921 2.6677-4.1309 5.1777-4.1309 2.797 0 5.1163 1.3989 6.0703 4.1309 0.094 0.286 0.31702 0.95313 0.66602 0.95313 0.317 0 0.37965-0.22056 0.34765-0.47656l-0.47656-4.3203c-0.03-0.35-0.18791-0.44336-0.37891-0.44336-0.32 0-0.38297 0.34766-0.66796 0.34766-0.446 0-1.4948-1.1426-5.3398-1.1426zm22.621 0c-6.702 0.002-11.436 5.3693-11.436 11.945 0 6.578 4.6706 11.057 11.184 11.057 7.147 0 9.4055-2.3828 9.4375-2.5098l0.72852-3.1797c0.03-0.155-0.12611-0.34765-0.28711-0.34765-0.191 0-0.38136 0.19106-0.44336 0.41406-0.476 1.459-3.5901 4.6367-8.5801 4.6367-6.1 0-9.2754-5.5266-9.2754-11.057 0-5.907 2.9847-10.037 9.1797-10.037 4.098 0 6.3552 2.0628 8.3242 5.4648 0.127 0.221 0.35142 1.0449 0.73242 1.0449 0.54 0 0.2515-1.0465 0.1875-2.7305-0.092-2.064-0.0924-2.5742-0.44336-2.5742-0.317 0-0.50767 0.32031-0.76367 0.32031-0.919 0-2.5709-2.4473-8.5449-2.4473zm82.258 0c-6.704 0.002-11.439 5.3693-11.439 11.945 0 6.578 4.6726 11.057 11.184 11.057 7.15 0 9.4055-2.3828 9.4375-2.5098l0.73242-3.1797c0.031-0.155-0.12716-0.34765-0.28516-0.34765-0.189 0-0.38326 0.19106-0.44726 0.41406-0.475 1.459-3.5892 4.6367-8.5742 4.6367-6.102 0-9.2793-5.5266-9.2793-11.057 0-5.907 2.9886-10.037 9.1836-10.037 4.102 0 6.3542 2.0628 8.3242 5.4648 0.12599 0.221 0.34851 1.0449 0.72851 1.0449 0.54 0 0.25741-1.0465 0.19141-2.7305-0.098-2.064-0.0984-2.5742-0.44336-2.5742-0.316 0-0.50867 0.32031-0.76367 0.32031-0.922 0-2.5738-2.4473-8.5488-2.4473zm53.316 0c-6.71 0.002-11.441 5.3693-11.441 11.945 0 6.578 4.6675 11.057 11.186 11.057 7.146 0 9.4036-2.3828 9.4356-2.5098l0.73242-3.1797c0.029-0.155-0.13011-0.34765-0.28711-0.34765-0.191 0-0.38131 0.19106-0.44531 0.41406-0.477 1.459-3.5891 4.6367-8.5781 4.6367-6.102 0-9.2774-5.5266-9.2774-11.057 0-5.907 2.9856-10.037 9.1856-10.037 4.098 0 6.3542 2.0628 8.3242 5.4648 0.126 0.221 0.34751 1.0449 0.72851 1.0449 0.542 0 0.25446-1.0465 0.18946-2.7305-0.095-2.064-0.0953-2.5742-0.44532-2.5742-0.317 0-0.50676 0.32031-0.75976 0.32031-0.922 0-2.5749-2.4473-8.5469-2.4473zm108.74 0.27344c-0.24059 0.005-0.40525 0.0156-0.46875 0.0156-1.65 0-3.4666 0.125-5.3066 0.125-1.621 0-1.4632-0.125-2.0352-0.125-0.381 0-0.63672 0.18991-0.63672 0.37891 0 1.081 2.7324-0.22383 2.7324 2.8262v16.172c0 2.416-2.3164 1.9687-2.3164 2.7637 0 0.191 0.12736 0.34961 0.31836 0.34961 1.204 0 2.4111-0.12305 3.6191-0.12305 2.637 0 3.3664 0.12305 3.6504 0.12305 0.256 0 0.54297 0.063 0.54297-0.25195 0-1.08-3.3047-0.0991-3.3047-2.8281v-6.7051c0-0.315-0.19079-0.88672 0.82421-0.88672 3.56 0 3.0836-0.0974 4.2246 1.6816l3.5293 5.5586c1.209 1.812 2.4436 3.4336 4.7656 3.4336 0.286 0 2.0644 0.0001 2.0644-0.3789 0-0.767-1.5568 0.40896-3.8438-3.082l-5.3047-8.041c2.223-0.889 4.0039-3.0191 4.0039-5.4961 0-5.3655-5.3744-5.5479-7.0586-5.5098zm-405.41 0.0156c-0.478 0-0.54102 0.15566-0.54102 0.34766 0 0.732 2.3848 0.18881 2.3848 2.3828v6.5137c0 0.126 0.06314 0.92187-0.25586 0.92187h-11.623c-0.478 0-0.47852-0.12531-0.47852-0.57031v-6.8633c0-2.383 2.2871-1.7801 2.2871-2.4141 0-0.127-0.06252-0.3164-0.60352-0.3164-0.985 0-1.9691 0.12695-2.9551 0.12695-1.174 0-2.3181-0.12695-3.4941-0.12695-0.253 0-0.50781 0.0617-0.50781 0.34765 0 0.699 2.7326 0.0638 2.7656 2.3828l-0.002 16.264c0 3.143-2.4785 2.0975-2.4785 3.0195 0 0.316 0.09461 0.47461 0.34961 0.47461 0.127 0 0.47842-0.12305 2.7324-0.12305 1.685 0 4.002 0.12305 4.418 0.12305 0.285 0 0.50781-0.095 0.50781-0.25195 0-0.986-3.0195-0.28532-3.0195-2.4453v-7.9102c0-0.352-0.0011-0.54297 0.38086-0.54297h11.723c0.381 0 0.25586 0.28787 0.25586 0.79687v7.623c0 2.004-2.2246 1.5593-2.2246 2.3223 0 0.508 0.47472 0.4082 0.76172 0.4082 0.602 0 1.4914-0.12305 3.5254-0.12305 1.145 0 2.1313 0.12305 2.9883 0.12305 0.223 0 0.34961-0.28391 0.34961-0.37891 0-0.795-2.8906-0.22297-2.8906-2.543v-16.838c0-2.193 2.127-1.6496 2.127-2.2226 0-0.19-0.06263-0.50782-0.89062-0.50782-0.634 0-1.1102 0.12696-2.2852 0.12696-0.604 0-2.2586-0.12696-3.3066-0.12696zm11.441 0c-0.921 0-1.1133 0.12591-1.1133 0.37891 0 0.382 0.70012 0.44477 0.95312 0.50977 1.717 0.253 1.7168 1.779 1.7168 3.207v14.49c0 1.494-0.06462 2.3807-0.89062 2.7617-1.019 0.51-1.3354 0.44713-1.4004 0.82813 0 0.252 0.19152 0.31445 0.47852 0.31445 1.271 0 2.607-0.0951 3.877-0.12305 2.414-0.068 4.8301 0.12305 7.2461 0.12305 1.397 0 2.0934 0.0629 3.1094-1.0801 0.763-0.826 1.5918-1.9361 1.5918-3.0781 0-0.064-0.03586-0.38282-0.25586-0.38282-0.414 0-1.494 3.2715-8.832 3.2715-2.668 0-2.416-0.76377-2.416-2.6348v-5.8496c0-0.473-0.09674-1.0137 0.57226-1.0137h4.7031c2.669 0 1.5883 2.7949 2.5723 2.7949 0.225 0 0.35156-0.12906 0.35156-0.41406 0-0.856-0.06445-1.6838-0.06445-2.5078 0-1.02 0.06445-2.1 0.06445-3.209 0-0.254-0.09656-0.60546-0.35156-0.60546-0.761 0 0.09697 2.541-3.207 2.541h-3.4316c-1.271 0-1.209 0.00088-1.209-1.0781v-5.9102c0-2.129-0.06172-2.002 2.9883-2.002 1.271 0 4.5773-0.19038 5.4023 0.89062 0.507 0.73-0.0013 2.2539 0.76172 2.2539 0.19 0 0.63476-0.25235 0.63476-3.7774 0-0.382-0.06141-0.69922-0.31641-0.69922-0.986 0-3.9099 0.12696-4.5449 0.12696-1.334 0-2.9872-0.12696-8.9902-0.12696zm45.018 0c-0.411 0-0.63281 0.0602-0.63281 0.41016 0 0.635 2.666 0.41341 2.666 2.0664v16.107c0 1.494-0.06367 2.3807-0.88867 2.7617-1.018 0.51-1.3344 0.44712-1.3984 0.82812 0 0.252 0.18952 0.31446 0.47852 0.31446 1.271 0 2.606-0.095 3.877-0.12305 2.413-0.068 4.8291 0.12305 7.2441 0.12305 1.398 0 2.0973 0.0629 3.1133-1.0801 0.763-0.826 1.5879-1.9381 1.5879-3.0801 0-0.064-0.0329-0.38086-0.2539-0.38086-0.414 0-1.495 3.2715-8.834 3.2715-2.668 0-2.4141-0.76377-2.4141-2.6348v-15.441c0-2.765 2.3184-1.9712 2.3184-2.7012 0-0.382-0.18956-0.44141-0.60156-0.44141-0.478 0-1.2418 0.125-3.0508 0.125-1.559 0-2.5419-0.125-3.2109-0.125zm15.768 0c-0.572 0-0.54227 0.85333-0.57227 1.2363l-0.35156 3.084c0 0.156 0.12931 0.38281 0.32031 0.38281 0.414 0 0.44206-0.41638 0.53906-0.73437 0.572-1.746 0.63543-2.2246 2.6074-2.2246h5.1777c0.444 0.033 0.31641 1.2419 0.31641 1.4629v16.521c0 1.904-2.5098 1.5885-2.5098 2.3535 0 0.315 0.0939 0.4082 0.38086 0.4082 0.188 0 0.79356-0.12305 4.3516-0.12305 0.921 0 1.8122 0.12305 2.5742 0.12305 0.32 0 0.28711-0.28491 0.28711-0.37891 0-0.986-2.5742 0.0635-2.5742-2.6055v-16.203c0-1.685-0.15847-1.5586 1.2695-1.5586h4.5449c3.241 0 1.5242 2.416 2.6992 2.416 0.414 0 0.38357-0.38222 0.35157-0.69922l-0.16211-2.541c-0.03-0.729-0.18897-0.91993-0.91797-0.91993-0.637 0-3.5606 0.12696-9.3086 0.12696-4.1 0-6.5484-0.12696-9.0234-0.12696zm38.154 0c-0.479 0-0.54297 0.15566-0.54297 0.34766 0 0.732 2.3867 0.18881 2.3867 2.3828v6.5137c0 0.126 0.0621 0.92187-0.2539 0.92187h-11.627c-0.478 0-0.47656-0.12531-0.47656-0.57031v-6.8633c0-2.383 2.2871-1.7801 2.2871-2.4141 0-0.127-0.0655-0.3164-0.60351-0.3164-0.986 0-1.9691 0.12695-2.9551 0.12695-1.174 0-2.3191-0.12695-3.4961-0.12695-0.255 0-0.50781 0.0617-0.50781 0.34765 0 0.699 2.7326 0.0638 2.7656 2.3828v16.264c0 3.143-2.4785 2.0975-2.4785 3.0195 0 0.316 0.0947 0.47461 0.34766 0.47461 0.129 0 0.47842-0.12305 2.7324-0.12305 1.685 0 4.002 0.12305 4.416 0.12305 0.286 0 0.50782-0.095 0.50782-0.25195 0-0.986-3.0176-0.28532-3.0176-2.4453v-7.9102c0-0.352-0.00014-0.54297 0.38086-0.54297h11.725c0.381 0 0.2539 0.28787 0.2539 0.79687v7.623c0 2.004-2.2246 1.5593-2.2246 2.3223 0 0.508 0.47568 0.4082 0.76368 0.4082 0.602 0 1.4914-0.12305 3.5254-0.12305 1.142 0 2.1283 0.12305 2.9863 0.12305 0.22301 0 0.35157-0.28391 0.35157-0.37891 0-0.795-2.8945-0.22297-2.8945-2.543v-16.838c0-2.193 2.1309-1.6496 2.1309-2.2226 0-0.19-0.0627-0.50782-0.88868-0.50782-0.637 0-1.1121 0.12696-2.2871 0.12696-0.607 0-2.2586-0.12696-3.3066-0.12696zm76.92 0c-0.919 0-1.1094 0.12591-1.1094 0.37891 0 0.382 0.69813 0.44477 0.95313 0.50977 1.715 0.253 1.7148 1.779 1.7148 3.207v14.49c0 1.494-0.0626 2.3807-0.89063 2.7617-1.016 0.51-1.3325 0.44713-1.3965 0.82813 0 0.252 0.19156 0.31445 0.47656 0.31445 1.271 0 2.604-0.0951 3.875-0.12305 2.416-0.068 4.8281 0.12305 7.2441 0.12305 1.396 0 2.0992 0.0629 3.1152-1.0801 0.763-0.826 1.5879-1.9361 1.5879-3.0781 0-0.064-0.0299-0.38282-0.25586-0.38282-0.41 0-1.492 3.2715-8.834 3.2715-2.669 0-2.4141-0.76377-2.4141-2.6348v-5.8496c0-0.473-0.0937-1.0137 0.57227-1.0137h4.7031c2.667 0 1.5873 2.7949 2.5723 2.7949 0.221 0 0.34765-0.12906 0.34765-0.41406 0-0.856-0.0625-1.6838-0.0625-2.5078 0-1.02 0.0625-2.1 0.0625-3.209 0-0.254-0.0936-0.60546-0.34765-0.60546-0.763 0 0.0941 2.541-3.2109 2.541h-3.4297c-1.271 0-1.207 0.00088-1.207-1.0781v-5.9102c0-2.129-0.0627-2.002 2.9863-2.002 1.271 0 4.5754-0.19038 5.4004 0.89062 0.51 0.73 0.00067 2.2539 0.76367 2.2539 0.191 0 0.63672-0.25235 0.63672-3.7774 0-0.382-0.0643-0.69922-0.32031-0.69922-0.983 0-3.907 0.12696-4.541 0.12696-1.335 0-2.9842-0.12696-8.9922-0.12696zm17.791 0c-0.158 0-0.47656 0.12541-0.47656 0.31641 0 1.174 3.8418-0.66755 3.8418 5.9394l0.002 11.723c0 4.447-2.793 3.0541-2.793 4.1621 0 0.158 0.0311 0.34961 0.41406 0.34961 0.221 0 1.8734-0.12305 2.9844-0.12305 1.557 0 2.444 0.12305 3.207 0.12305 0.317 0 0.35351-0.2502 0.35351-0.4082 0-0.861-2.7969 0.25157-2.7969-2.6074v-12.994c0-0.636 0.0937-0.73047 0.2207-0.73047 0.225 0 0.60297 0.54252 0.66797 0.60352l13.66 15.375c0.668 0.732 0.98398 0.88867 1.209 0.88867 0.254 0 0.28516-0.44128 0.28516-1.3633v-18.395c0-2.322 1.877-1.7482 1.877-2.5762 0-0.188-0.1294-0.28125-0.3164-0.28125-0.76401 0-2.1329 0.125-3.2129 0.125-1.018 0-1.9376-0.125-2.8906-0.125-0.191 0-0.34961 0.0944-0.34961 0.3164 0 1.047 3.5254-0.16204 3.5254 4.002v13.279c0 0.254-0.0337 0.35157-0.0957 0.35157-0.064 0-0.19082-0.12757-0.38282-0.35157l-15.152-16.871c-0.191-0.221-0.47917-0.72852-0.82617-0.72852-0.477 0-0.98494 0.12696-1.4609 0.12696-0.508 0-0.98614-0.12696-1.4941-0.12696zm52.299 0c-0.922 0-1.1133 0.12591-1.1133 0.37891 0 0.382 0.69917 0.44477 0.95117 0.50977 1.719 0.253 1.7188 1.779 1.7188 3.207v14.49c0 1.494-0.0636 2.3807-0.89062 2.7617-1.019 0.51-1.3374 0.44713-1.3984 0.82813 0 0.252 0.18956 0.31445 0.47656 0.31445 1.271 0 2.6069-0.0951 3.8789-0.12305 2.415-0.068 4.8281 0.12305 7.2441 0.12305 1.396 0 2.0953 0.0629 3.1133-1.0801 0.76-0.826 1.5879-1.9361 1.5879-3.0781 0-0.064-0.0339-0.38282-0.25391-0.38282-0.414 0-1.496 3.2715-8.834 3.2715-2.668 0-2.416-0.76377-2.416-2.6348v-5.8496c0-0.473-0.0927-1.0137 0.57227-1.0137h4.7031c2.668 0 1.5873 2.7949 2.5723 2.7949 0.224 0 0.34961-0.12906 0.34961-0.41406 0-0.856-0.0625-1.6838-0.0625-2.5078 0-1.02 0.0625-2.1 0.0625-3.209 0-0.254-0.0966-0.60546-0.34961-0.60546-0.763 0 0.094 2.541-3.209 2.541h-3.4316c-1.271 0-1.209 0.00088-1.209-1.0781v-5.9102c0-2.129-0.0607-2.002 2.9883-2.002 1.271 0 4.5744-0.19038 5.3984 0.89062 0.509 0.73 0.002 2.2539 0.76562 2.2539 0.19 0 0.63477-0.25235 0.63477-3.7774 0-0.382-0.0614-0.69922-0.31641-0.69922-0.986 0-3.9109 0.12696-4.5449 0.12696-1.336 0-2.9853-0.12696-8.9883-0.12696zm53.314 0c-0.925 0-1.1172 0.12591-1.1172 0.37891 0 0.382 0.70208 0.44477 0.95508 0.50977 1.717 0.253 1.7168 1.779 1.7168 3.207v14.49c0 1.494-0.0636 2.3807-0.89062 2.7617-1.019 0.51-1.3344 0.44713-1.3984 0.82813 0 0.252 0.18951 0.31445 0.47851 0.31445 1.271 0 2.6069-0.0951 3.8789-0.12305 2.414-0.068 4.8272 0.12305 7.2422 0.12305 1.397 0 2.0993 0.0629 3.1133-1.0801 0.763-0.826 1.5898-1.9361 1.5898-3.0781 0-0.064-0.0359-0.38282-0.25586-0.38282-0.414 0-1.494 3.2715-8.832 3.2715-2.668 0-2.4141-0.76377-2.4141-2.6348v-5.8496c0-0.473-0.0987-1.0137 0.57031-1.0137h4.7012c2.668 0 1.5883 2.7949 2.5723 2.7949 0.223 0 0.35156-0.12906 0.35156-0.41406 0-0.856-0.0625-1.6838-0.0625-2.5078 0-1.02 0.0625-2.1 0.0625-3.209 0-0.254-0.0966-0.60546-0.35156-0.60546-0.764 0 0.0969 2.541-3.2051 2.541h-3.4356c-1.268 0-1.2051 0.00088-1.2051-1.0781v-5.9102c0-2.129-0.0627-2.002 2.9863-2.002 1.271 0 4.5734-0.19038 5.4004 0.89062 0.509 0.73-0.00028 2.2539 0.76172 2.2539 0.189 0 0.63672-0.25235 0.63672-3.7774 0-0.382-0.0634-0.69922-0.3164-0.69922-0.986 0-3.9079 0.12696-4.5469 0.12696-1.333 0-2.9843-0.12696-8.9863-0.12696zm17.787 0c-0.158 0-0.48047 0.12541-0.48047 0.31641 0 1.174 3.8477-0.66755 3.8477 5.9394v11.723h0.002c0 4.447-2.7969 3.0541-2.7969 4.1621 0 0.158 0.0311 0.34961 0.41211 0.34961 0.225 0 1.8743-0.12305 2.9883-0.12305 1.558 0 2.446 0.12305 3.207 0.12305 0.32 0 0.34961-0.2502 0.34961-0.4082 0-0.861-2.7969 0.25157-2.7969-2.6074v-12.994c0-0.636 0.0976-0.73047 0.22657-0.73047 0.22 0 0.60396 0.54252 0.66797 0.60352l13.66 15.375c0.668 0.732 0.98408 0.88867 1.2051 0.88867 0.257 0 0.28711-0.44128 0.28711-1.3633v-18.395c0-2.322 1.875-1.7482 1.875-2.5762 0-0.188-0.12936-0.28125-0.31836-0.28125-0.764 0-2.129 0.125-3.209 0.125-1.016 0-1.9396-0.125-2.8926-0.125-0.188 0-0.34961 0.0944-0.34961 0.3164 0 1.047 3.5273-0.16204 3.5273 4.002v13.279c0 0.254-0.0297 0.35157-0.0957 0.35157-0.064 0-0.19081-0.12757-0.38281-0.35157l-15.154-16.871c-0.189-0.221-0.47617-0.72852-0.82617-0.72852-0.477 0-0.98289 0.12696-1.4629 0.12696-0.509 0-0.98224-0.12696-1.4902-0.12696zm27.262 0c-0.572 0-0.54126 0.85333-0.57226 1.2363l-0.34961 3.084c0 0.156 0.1274 0.38281 0.3164 0.38281 0.414 0 0.44306-0.41638 0.53906-0.73437 0.573-1.746 0.63847-2.2246 2.6055-2.2246h5.1777c0.444 0.033 0.31836 1.2419 0.31836 1.4629v16.521c0 1.904-2.5078 1.5885-2.5078 2.3535 0 0.315 0.0939 0.4082 0.38086 0.4082 0.19 0 0.79352-0.12305 4.3535-0.12305 0.922 0 1.8113 0.12305 2.5723 0.12305 0.318 0 0.28711-0.28491 0.28711-0.37891 0-0.986-2.5723 0.0635-2.5723-2.6055v-16.203c0-1.685-0.16052-1.5586 1.2715-1.5586h4.541c3.239 0 1.5251 2.416 2.7031 2.416 0.411 0 0.37866-0.38222 0.34766-0.69922l-0.1582-2.541c-0.034-0.729-0.18783-0.91993-0.92383-0.91993-0.634 0-3.5566 0.12696-9.3086 0.12696-4.1 0-6.5455-0.12696-9.0215-0.12696zm23.289 0c-0.921 0-1.1113 0.12591-1.1113 0.37891 0 0.382 0.69712 0.44477 0.95312 0.50977 1.715 0.253 1.7168 1.779 1.7168 3.207v14.49c0 1.494-0.0636 2.3807-0.89258 2.7617-1.016 0.51-1.3325 0.44713-1.3965 0.82813 0 0.252 0.19057 0.31445 0.47657 0.31445 1.271 0 2.6069-0.0951 3.8789-0.12305 2.413-0.068 4.8292 0.12305 7.2422 0.12305 1.398 0 2.0983 0.0629 3.1133-1.0801 0.764-0.826 1.5879-1.9361 1.5879-3.0781 0-0.064-0.029-0.38282-0.25195-0.38282-0.412 0-1.492 3.2715-8.834 3.2715-2.668 0-2.4141-0.76377-2.4141-2.6348v-5.8496c0-0.473-0.0947-1.0137 0.57032-1.0137h4.7012c2.668 0 1.5892 2.7949 2.5742 2.7949 0.221 0 0.35156-0.12906 0.35156-0.41406 0-0.856-0.0645-1.6838-0.0645-2.5078 0-1.02 0.0645-2.1 0.0645-3.209 0-0.254-0.0976-0.60546-0.35156-0.60546-0.763 0 0.0941 2.541-3.2109 2.541h-3.4316c-1.271 0-1.207 0.00088-1.207-1.0781v-5.9102c0-2.129-0.0637-2.002 2.9863-2.002 1.271 0 4.5744-0.19038 5.4024 0.89062 0.507 0.73-0.00024 2.2539 0.75976 2.2539 0.191 0 0.63868-0.25235 0.63868-3.7774 0-0.382-0.0634-0.69922-0.31641-0.69922-0.983 0-3.9069 0.12696-4.5449 0.12696-1.333 0-2.9852-0.12696-8.9902-0.12696zm-204.01 0.002c-0.252 0-0.31641 0.0617-0.31641 0.34765 0 0.699 2.5422 0.0638 2.5742 2.3828v16.264c0 3.143-2.4766 2.0975-2.4766 3.0195 0 0.316 0.093 0.47461 0.66602 0.47461 0.444 0 1.1128-0.12305 3.0508-0.12305 1.368 0 2.7319 0.12305 3.4629 0.12305 0.54 0 0.63672-0.0935 0.63672-0.31445 0-0.955-2.8301-0.22282-2.8301-2.3828v-17.062c0-2.383 2.2871-1.6491 2.2871-2.4121 0-0.256-0.0926-0.3164-0.60156-0.3164-0.985 0-1.97 0.125-2.957 0.125-1.174 0-2.3191-0.125-3.4961-0.125zm228.98 1.043c3.114 0 6.0703 1.3047 6.0703 5.1797 0 3.938-3.05 4.5117-4.418 4.5117-1.491 0-3.4609 0.15969-3.4609-0.44531v-8.0703c0-1.239 0.66659-1.1758 1.8086-1.1758zm-363.23 2.6719c0.08388 0 0.16514 0.0952 0.24414 0.28516l3.1113 7.6543c0.161 0.415 0.19019 0.63671-0.50781 0.63671h-6.291c-0.412 0-0.63411-0.12726-0.41211-0.57226l3.591-7.72c0.0955-0.19 0.1837-0.28516 0.26758-0.28516z" transform="translate(0,234.5)"/></g></svg>
